<svg id="draw.id" overflow="visible" v:layers="{&quot;default&quot;:{&quot;name&quot;:&quot;Default&quot;,&quot;print&quot;:1,&quot;display&quot;:1,&quot;publish&quot;:1}}" v:ver="3" x="500.5" xmlns="http://www.w3.org/2000/svg" xmlns:v="http://vecta.io" xmlns:xlink="http://www.w3.org/1999/xlink" y="500.5" v:stencils="{&quot;0&quot;:{&quot;id&quot;:&quot;stencil_51&quot;,&quot;expand&quot;:1,&quot;show_name&quot;:1},&quot;1&quot;:{&quot;id&quot;:&quot;stencil_25&quot;,&quot;expand&quot;:1,&quot;show_name&quot;:1},&quot;2&quot;:{&quot;id&quot;:&quot;stencil_65&quot;,&quot;expand&quot;:1,&quot;show_name&quot;:1}}"><style xmlns="http://www.w3.org/1999/xhtml"><![CDATA[#draw\.id{stroke:#000;stroke-linecap:round;stroke-linejoin:round;fill:#fff;fill-rule:evenodd;font-family:Roboto;font-size:14px;text-anchor:middle}#draw\.id text{paint-order:stroke;white-space:pre}#draw\.id .Text\.cls{stroke:none}]]></style><defs><style type="text/css">@import url('https://fonts.googleapis.com/css?family=Roboto+Condensed:400,400i,700,700i');@import url('https://fonts.googleapis.com/css?family=Roboto:400,400i,700,700i');@import url('https://fonts.googleapis.com/css?family=Cousine:400,400i,700,700i');@import url('https://fonts.googleapis.com/css?family=Anonymous+Pro:400,400i,700,700i');@import url('https://fonts.googleapis.com/css?family=Lato:400,400i,700,700i');@import url('https://fonts.googleapis.com/css?family=Open+Sans:400,400i,700,700i');</style></defs><title xmlns="http://www.w3.org/1999/xhtml">JustBuy logo</title><desc xmlns="http://www.w3.org/1999/xhtml"></desc><svg height="476.22048568725586" id="knylcdr23d" overflow="visible" v:setup="{&quot;paper&quot;:&quot;A4&quot;,&quot;unit&quot;:&quot;px&quot;,&quot;scale&quot;:{&quot;from&quot;:1,&quot;to&quot;:1},&quot;width&quot;:1122.5197162628174,&quot;height&quot;:793.7008094787598}" viewBox="0 0 1122.5197162628174 793.7008094787598" width="673.5118297576904"><g id="knyle2bnke" class="Group.cls" rx="3" transform="translate(100 60)" v:abox="{&quot;x&quot;:100,&quot;y&quot;:60,&quot;width&quot;:133.7567558207507,&quot;height&quot;:130}" v:symbol="t7_B2ASQ_QOzMbZP9zGFGT" v:unit="{&quot;rounded&quot;:&quot;px&quot;}"><g class="Prim.cls"><g id="knyle2bokf" transform="translate(0 19.654534201575856)" v:unit="{&quot;strokeWidth&quot;:&quot;px&quot;}" class=""><path d="M 110.02285435911078 0 L 110.02285435911078 62.06215934742199 L 9.94335710280776 62.06215934742199 L 0 0 Z" fill="#d0cfce" fill-rule="nonzero" stroke="none" stroke-linecap="butt" stroke-linejoin="miter" stroke-width="2.0833"/></g><g id="knyle2bpkg" transform="translate(98.80435611368114 117.59018649791574)" v:unit="{&quot;strokeWidth&quot;:&quot;px&quot;}"><path d="M 0 6.204886647600893 C 0 2.7674253428577082 2.8738508073547115 0 6.4435048077353505 0 C 10.013289035178131 0 12.887009615470701 2.7674253428577082 12.887009615470701 6.204886647600893 C 12.887009615470701 9.642473356791365 10.013289035178131 12.409773295201786 6.4435048077353505 12.409773295201786 C 2.8738508073547115 12.409773295201786 0 9.642473356791365 0 6.204886647600893 Z" fill="#d0cfce" fill-rule="nonzero" stroke="none" stroke-linecap="butt" stroke-linejoin="miter" stroke-width="2.0833"/></g><g id="knyle2bqkh" transform="translate(0.8410481204125031 117.59018649791574)" v:unit="{&quot;strokeWidth&quot;:&quot;px&quot;}"><path d="M 0 6.204886647600893 C 0 2.7674253428577082 2.8738508073547115 0 6.4435048077353505 0 C 10.013289035178131 0 12.887009615470701 2.7674253428577082 12.887009615470701 6.204886647600893 C 12.887009615470701 9.642473356791365 10.013289035178131 12.409773295201786 6.4435048077353505 12.409773295201786 C 2.8738508073547115 12.409773295201786 0 9.642473356791365 0 6.204886647600893 Z" fill="#d0cfce" fill-rule="nonzero" stroke="none" stroke-linecap="butt" stroke-linejoin="miter" stroke-width="2.0833"/></g><g id="knyle2bqki" transform="translate(20.171627657149635 32.827225076944664)" v:unit="{&quot;strokeWidth&quot;:&quot;px&quot;}"><path d="M 72.92442003134335 0 L 72.92442003134335 2.0901159230292476 M 72.92442003134335 34.25108966684844 L 72.92442003134335 36.34120558987769 M 58.33898907141371 0 L 58.33898907141371 2.0901159230292476 M 58.33898907141371 34.25108966684844 L 58.33898907141371 36.34120558987769 M 43.753558111484054 0 L 43.753558111484054 2.0901159230292476 M 43.753558111484054 34.25108966684844 L 43.753558111484054 36.34120558987769 M 29.170861919859306 0 L 29.170861919859306 2.0901159230292476 M 29.170861919859306 34.25108966684844 L 29.170861919859306 36.34120558987769 M 14.582696191624688 0 L 14.582696191624688 2.0901159230292476 M 14.582696191624688 34.25108966684844 L 14.582696191624688 36.34120558987769 M 1e-13 1e-13 L 0 2.0901159230292476 M 0 34.25108966684844 L 0 36.34120558987769 M 72.92442003134335 16.60568069717188 L 72.92442003134335 18.695671215753848 M 58.33898907141371 16.60568069717188 L 58.33898907141371 18.695671215753848 M 43.753558111484054 16.60568069717188 L 43.753558111484054 18.695671215753848 M 29.170861919859306 16.60568069717188 L 29.170861919859306 18.695671215753848 M 14.582696191624688 16.60568069717188 L 14.582696191624688 18.695671215753848 M 0 16.60568069717188 L 0 18.695671215753848" fill="#9b9b9a" fill-rule="nonzero" stroke="none" stroke-linecap="butt" stroke-linejoin="miter" stroke-width="2.0833"/></g><g id="knyle2bqkj" transform="translate(0 19.654534201575856)" v:unit="{&quot;strokeWidth&quot;:&quot;px&quot;}"><path d="M 110.02285435911078 0 L 110.02285435911078 62.06215934742199 L 9.94335710280776 62.06215934742199 L 0 0 Z" fill="none" fill-rule="nonzero" stroke-linecap="butt" stroke-width="4.1667"/></g><g id="knyle2bqkk" transform="translate(7.284571320812761 0)" v:unit="{&quot;strokeWidth&quot;:&quot;px&quot;}"><path d="M 102.73834318406095 19.654513619754646 L 112.51344692258088 0 L 126.47222525948207 0 M 0 106.54412003775961 L 102.74915203021862 106.54412003775961" fill="none" fill-rule="nonzero" stroke-width="4.1667"/></g><g id="knyle2bqkl" transform="translate(98.80435611368114 117.59018649791574)" v:unit="{&quot;strokeWidth&quot;:&quot;px&quot;}"><path d="M 0 6.204886647600893 C 0 2.7674253428577082 2.8738508073547115 0 6.4435048077353505 0 C 10.013289035178131 0 12.887009615470701 2.7674253428577082 12.887009615470701 6.204886647600893 C 12.887009615470701 9.642473356791365 10.013289035178131 12.409773295201786 6.4435048077353505 12.409773295201786 C 2.8738508073547115 12.409773295201786 0 9.642473356791365 0 6.204886647600893 Z" fill="none" fill-rule="nonzero" stroke-linecap="butt" stroke-width="4.1667"/></g><g id="knyle2bqkm" transform="translate(0.8410481204125031 117.59018649791574)" v:unit="{&quot;strokeWidth&quot;:&quot;px&quot;}"><path d="M 0 6.204886647600893 C 0 2.7674253428577082 2.8738508073547115 0 6.4435048077353505 0 C 10.013289035178131 0 12.887009615470701 2.7674253428577082 12.887009615470701 6.204886647600893 C 12.887009615470701 9.642473356791365 10.013289035178131 12.409773295201786 6.4435048077353505 12.409773295201786 C 2.8738508073547115 12.409773295201786 0 9.642473356791365 0 6.204886647600893 Z" fill="none" fill-rule="nonzero" stroke-linecap="butt" stroke-width="4.1667"/></g><g id="knyle2bqkn" transform="translate(20.171627657149635 32.827225076944664)" v:unit="{&quot;strokeWidth&quot;:&quot;px&quot;}"><path d="M 89.85120334152806 48.889425394890765 C 89.85120334152806 48.889425394890765 102.98251892557755 49.819550180461476 102.98251892557755 61.39851901234845 C 102.98251892557755 74.78017677406942 90.5485692592997 73.70909738974161 90.5485692592997 73.70909738974161 M 72.92442003134332 0 L 72.92442003134332 2.0901159230292463 M 72.92442003134332 34.25108966684842 L 72.92442003134332 36.341205589877674 M 58.338989071413685 0 L 58.338989071413685 2.0901159230292463 M 58.338989071413685 34.25108966684842 L 58.338989071413685 36.341205589877674 M 43.75355811148401 0 L 43.75355811148401 2.0901159230292463 M 43.75355811148401 34.25108966684842 L 43.75355811148401 36.341205589877674 M 29.170861919859295 0 L 29.170861919859295 2.0901159230292463 M 29.170861919859295 34.25108966684842 L 29.170861919859295 36.341205589877674 M 14.582696191624674 0 L 14.582696191624674 2.0901159230292463 M 14.582696191624674 34.25108966684842 L 14.582696191624674 36.341205589877674 M 1e-13 1e-13 L 0 2.0901159230292463 M 0 34.25108966684842 L 0 36.341205589877674 M 72.92442003134332 16.605680697171884 L 72.92442003134332 18.695671215753837 M 58.338989071413685 16.605680697171884 L 58.338989071413685 18.695671215753837 M 43.75355811148401 16.605680697171884 L 43.75355811148401 18.695671215753837 M 29.170861919859295 16.605680697171884 L 29.170861919859295 18.695671215753837 M 14.582696191624674 16.605680697171884 L 14.582696191624674 18.695671215753837 M 0 16.605680697171884 L 0 18.695671215753837" fill="none" fill-rule="nonzero" stroke-miterlimit="10" stroke-width="4.1667"/></g></g></g><g id="knylhw2lko" transform="translate(-44.054041050573574 0)" v:unit="{&quot;strokeWidth&quot;:&quot;px&quot;}" class=""><rect fill="none" height="249.4716796875" stroke="none" stroke-width="0" width="754.0540410505736" x="0" y="0"/><g transform="translate(0 0)" class="Text.cls"><rect x="0" y="0" width="854.5949379302452" height="249.4716796875" fill="none" stroke="none"/><text fill="#000000" fill-opacity="1" font-size="60px" class=""><tspan font-weight="bold" font-family="Cousine" x="397.2974548339844" y="144.53583984375">JustBuy</tspan><tspan font-weight="700" font-family="arial, sans-serif" stroke-width="0px" x="553.3179626464844" y="144.53583984375">™</tspan></text></g></g></svg></svg>