<svg xmlns="http://www.w3.org/2000/svg" xmlns:xlink="http://www.w3.org/1999/xlink" width="130" height="100" stroke="#000" stroke-linecap="round" stroke-linejoin="round" fill="#fff" fill-rule="evenodd">
    <g stroke="none">
        <g fill="#d0cfce" fill-rule="nonzero">
            <path d="M95.498 15.607v42.9661H25.9135L19 15.607z"/>
            <use xlink:href="#B"/>
            <use xlink:href="#C"/>
        </g>
        <path d="M83.7289 24.7265v1.447m0 22.2653v1.447M73.5878 24.7265v1.447m0 22.2653v1.447M63.4467 24.7265v1.447m0 22.2653v1.447M53.3075 24.7265v1.447m0 22.2653v1.447M43.1644 24.7265v1.447m0 22.2653v1.447M33.0252 24.7265v1.447m0 22.2653v1.447m50.7037-13.6631v1.447m-10.1411-1.447v1.447m-10.1411-1.447v1.447m-10.1392-1.447v1.447m-10.1431-1.447v1.447m-10.1392-1.447v1.447" fill="#9b9b9a" fill-rule="nonzero"/>
    </g>
    <g fill="none" stroke-width="4.1667">
        <path d="M95.498 15.607v42.9661H25.9135L19 15.607z"/>
        <path d="M95.498 15.607L102.2946 2H112M24.0649 75.7613h71.4406"/>
        <use xlink:href="#B"/>
        <use xlink:href="#C"/>
        <path d="M95.498 58.573s9.1301.644 9.1301 8.6602c0 9.2642-8.6452 8.5227-8.6452 8.5227m-12.254-51.0294v1.447m0 22.2653v1.447M73.5878 24.7265v1.447m0 22.2653v1.447M63.4467 24.7265v1.447m0 22.2653v1.447M53.3075 24.7265v1.447m0 22.2653v1.447M43.1644 24.7265v1.447m0 22.2653v1.447M33.0252 24.7265v1.447m0 22.2653v1.447m50.7037-13.6631v1.447m-10.1411-1.447v1.447m-10.1411-1.447v1.447m-10.1392-1.447v1.447m-10.1431-1.447v1.447m-10.1392-1.447v1.447" stroke-miterlimit="10"/>
    </g>
    <defs >
        <path id="B" d="M87.6978 87.7043c0-2.3798 1.9982-4.2957 4.4801-4.2957s4.4801 1.9159 4.4801 4.2957S94.66 92 92.1779 92s-4.4801-1.9158-4.4801-4.2957z"/>
        <path id="C" d="M19.5848 87.7043c0-2.3798 1.9982-4.2957 4.4801-4.2957s4.4801 1.9159 4.4801 4.2957S26.547 92 24.0649 92s-4.4801-1.9158-4.4801-4.2957z"/>
    </defs>
</svg>